<?xml version="1.0" encoding="UTF-8" standalone="no"?>
<!-- Generator: Adobe Illustrator 15.0.2, SVG Export Plug-In . SVG Version: 6.00 Build 0)  -->

<svg
   xmlns:dc="http://purl.org/dc/elements/1.1/"
   xmlns:cc="http://creativecommons.org/ns#"
   xmlns:rdf="http://www.w3.org/1999/02/22-rdf-syntax-ns#"
   xmlns:svg="http://www.w3.org/2000/svg"
   xmlns="http://www.w3.org/2000/svg"
   xmlns:xlink="http://www.w3.org/1999/xlink"
   xmlns:sodipodi="http://sodipodi.sourceforge.net/DTD/sodipodi-0.dtd"
   xmlns:inkscape="http://www.inkscape.org/namespaces/inkscape"
   version="1.1"
   id="Layer_1"
   x="0px"
   y="0px"
   width="1568.1266"
   height="612.84564"
   viewBox="0 0 1568.1265 612.84564"
   enable-background="new 0 0 1568.133 816.461"
   xml:space="preserve"
   inkscape:version="0.47 r22583"
   sodipodi:docname="Tami_4_logo.svg"><metadata
   id="metadata105"><rdf:RDF><cc:Work
       rdf:about=""><dc:format>image/svg+xml</dc:format><dc:type
         rdf:resource="http://purl.org/dc/dcmitype/StillImage" /></cc:Work></rdf:RDF></metadata><defs
   id="defs103"><inkscape:perspective
   sodipodi:type="inkscape:persp3d"
   inkscape:vp_x="0 : 408.2305 : 1"
   inkscape:vp_y="0 : 1000 : 0"
   inkscape:vp_z="1568.1331 : 408.2305 : 1"
   inkscape:persp3d-origin="784.06653 : 272.15367 : 1"
   id="perspective107" />
	
		
	
		
	
		
	
		
	
		
	
		
	
		
	
		
	
		
	
		
	
		
	
		
</defs><sodipodi:namedview
   pagecolor="#ffffff"
   bordercolor="#666666"
   borderopacity="1"
   objecttolerance="10"
   gridtolerance="10"
   guidetolerance="10"
   inkscape:pageopacity="0"
   inkscape:pageshadow="2"
   inkscape:window-width="1280"
   inkscape:window-height="660"
   id="namedview101"
   showgrid="false"
   inkscape:zoom="0.28905239"
   inkscape:cx="784.06745"
   inkscape:cy="204.57542"
   inkscape:window-x="-4"
   inkscape:window-y="-4"
   inkscape:window-maximized="1"
   inkscape:current-layer="Layer_1" />
<symbol
   id="Symbol_48"
   viewBox="147.05 -822.1 9.1 6.8"
   transform="translate(9.2145094e-4,0.03975192)">
	<g
   id="Layer_1_2_">
		<path
   clip-rule="evenodd"
   d="m 155,-815.3 0.7,-0.15 0.45,-0.75 -0.75,-1.55 -1.6,-2.4 -0.45,-0.35 c -0.133,0 -0.35,0.133 -0.65,0.4 -0.6,0.5 -1.017,1.117 -1.25,1.85 l -0.15,-0.05 -2.2,-2.9 v -0.2 l -0.1,0.1 -0.1,0.15 -0.2,-0.3 -0.15,-0.1 -0.3,-0.3 -0.15,-0.1 h -0.35 l -0.25,-0.05 -0.2,-0.1 -0.15,0.05 -0.1,0.05 c 0.967,1.833 1.817,3.217 2.55,4.15 l 0.7,0.8 c 0.233,0.267 0.45,0.4 0.65,0.4 l 0.45,-0.15 0.45,-0.4 0.25,-0.9 c 0.167,-0.533 0.316,-0.8 0.45,-0.8 l 0.6,0.8 1.6,2.7 c 0.033,0.067 0.117,0.1 0.25,0.1 z"
   id="path5"
   style="fill:#002d64;fill-rule:evenodd" />
	</g>
</symbol>
<symbol
   id="Symbol_49"
   viewBox="125.95 -824.7 20.45 9.7"
   transform="translate(9.2145094e-4,0.03975192)">
	<g
   id="Layer_1_3_">
		<path
   clip-rule="evenodd"
   d="m 143.95,-815 0.4,-0.15 0.4,-0.25 c 0.067,-0.267 0.3,-0.6 0.7,-1 l 0.3,-0.55 0.3,-2.05 v -0.75 l 0.35,-1.95 v -0.8 l -0.1,-0.1 -0.25,0.05 -0.25,0.1 c -0.466,0.534 -0.833,1.233 -1.1,2.1 l -0.6,2.15 h -0.2 l -0.65,-0.95 -1.55,-2.15 -1.05,-1 -0.9,-1.15 c -0.2,0.1 -0.383,0.034 -0.55,-0.2 l -0.45,-0.4 -0.4,0.2 -0.45,0.3 v 0.2 c 0,0.267 0.1,0.6 0.3,1 l 0.55,0.95 1.9,2.5 1.35,1.9 1.3,1.85 0.65,0.15 z"
   id="path9"
   style="fill:#002d64;fill-rule:evenodd" />
		<g
   id="g11">
			<path
   clip-rule="evenodd"
   d="m 136.8,-815.3 0.4,-0.15 0.45,-0.4 0.2,-0.6 -0.45,-0.95 -0.7,-0.85 c 0.4,-0.267 0.733,-0.65 1,-1.15 l 0.35,-1.35 c 0,-0.8 -0.517,-1.55 -1.55,-2.25 -0.733,-0.467 -1.583,-0.85 -2.55,-1.15 l -1.6,-0.45 -0.1,0.05 -0.05,0.05 -0.25,-0.05 h -0.2 l -0.75,-0.15 -0.55,0.1 -0.15,0.1 -1.35,0.35 c 3.466,1.066 5.733,2.267 6.8,3.6 l 0.4,0.85 0.05,0.2 -1.4,1.5 c 0,0.233 0.217,0.7 0.65,1.4 l 0.8,1.1 0.55,0.2 z"
   id="path13"
   style="fill:#002d64;fill-rule:evenodd" />
		</g>
		<g
   id="g15">
			<polygon
   clip-rule="evenodd"
   points="126.85,-815.4 126.9,-815.45 127.5,-815.3 127.55,-815.3 127.65,-815.35 127.95,-815.3 128.25,-815.35 128.3,-815.4 128.35,-815.35 128.5,-815.35 128.55,-815.4 128.65,-815.4 128.7,-815.45 128.8,-815.45 129.2,-815.65 129.25,-815.75 129.35,-815.75 129.4,-815.85 129.55,-815.8 129.75,-815.95 130.15,-816.45 130.3,-816.7 130.4,-816.75 130.45,-816.85 130.5,-816.9 130.6,-817.05 130.6,-817.15 130.7,-817.25 130.75,-817.6 130.85,-817.85 130.8,-817.85 130.8,-817.9 130.85,-818.15 130.8,-818.3 130.75,-818.55 130.65,-818.55 130.4,-819.35 130.3,-819.35 130.35,-819.5 130.25,-819.55 130.2,-819.7 130.2,-819.8 129.95,-820.15 129.95,-820.25 129.9,-820.35 129.85,-820.35 129.85,-820.45 129.75,-820.55 129.6,-820.6 129.6,-820.7 129.4,-820.8 129.35,-821 129.2,-821.1 129.1,-821.15 129.1,-821.2 129,-821.15 128.9,-821.3 128.85,-821.4 128.75,-821.45 128.65,-821.55 128.65,-821.6 128.5,-821.8 128.35,-821.8 128.25,-821.85 128.1,-821.95 128,-822.05 127.85,-822.15 127.65,-822.2 127.55,-822.1 127.4,-822.15 127.3,-822.25 126.65,-822.4 126.65,-822.35 126.4,-822.4 126.15,-822.3 126.15,-822.25 126.45,-821.95 126.4,-821.9 126.45,-821.8 126.5,-821.75 126.55,-821.75 126.7,-821.45 126.9,-821.25 127.05,-821.05 127.05,-820.95 127.2,-820.65 127.3,-820.65 127.3,-820.55 127.4,-820.35 127.55,-820.2 127.6,-820 127.75,-819.85 127.95,-819.4 127.95,-819.3 128.05,-819.25 128,-819.2 127.95,-819.2 128,-819.1 127.95,-819.05 128.1,-819 128.15,-818.95 128.2,-818.8 128.2,-818.7 128.3,-818.7 128.3,-818.4 128.35,-818.2 128.45,-818 128.4,-817.75 128.45,-817.7 128.5,-817.6 128.4,-817.4 128.4,-817.25 128.3,-816.95 128.15,-816.7 128.1,-816.5 128,-816.5 127.95,-816.45 127.7,-816.5 127.5,-816.45 127.05,-816.55 127,-816.5 126,-816.3 125.95,-816 126,-816 126,-815.9 126.15,-815.85 126.2,-815.75 126.65,-815.45 126.8,-815.4 "
   id="polygon17"
   style="fill:#002d64;fill-rule:evenodd" />
		</g>
	</g>
</symbol>
<symbol
   id="Symbol_50"
   viewBox="122.3 -818.7 3.15 3.25"
   transform="translate(9.2145094e-4,0.03975192)">
	<g
   id="Layer_1_4_">
		<path
   clip-rule="evenodd"
   d="m 124.4,-815.45 0.8,-0.45 0.15,-0.3 0.1,-0.35 -0.45,-0.8 -0.85,-0.85 -0.4,-0.15 -0.1,-0.1 -0.15,-0.1 -0.45,-0.15 h -0.55 l -0.2,0.1 v 0.15 l 0.45,1.1 0.5,0.85 0.5,0.6 c 0.3,0.3 0.517,0.45 0.65,0.45 z"
   id="path21"
   style="fill:#002d64;fill-rule:evenodd" />
	</g>
</symbol>
<symbol
   id="Symbol_51"
   viewBox="111.05 -824.65 10.65 9.4"
   transform="translate(9.2145094e-4,0.03975192)">
	<g
   id="Layer_1_5_">
		<path
   clip-rule="evenodd"
   d="m 121.7,-818.6 -0.5,-1.4 -0.8,-0.95 -1.15,-0.7 -1.15,-0.3 h -0.2 l -0.2,-0.05 -0.65,0.05 -0.95,0.25 -1.4,0.7 -0.25,-0.2 -1.15,-1.95 -0.15,-0.15 -0.2,-0.15 -0.2,-0.4 -0.5,-0.55 -0.4,-0.25 -0.35,0.1 -0.4,0.25 -0.05,0.45 c 0,0.3 0.25,1.05 0.75,2.25 l 1.4,2.75 v 0.85 l 0.25,0.6 0.5,0.85 c 0.267,0.4 0.583,0.616 0.95,0.65 l 0.85,0.05 1.2,0.5 0.65,0.1 h 1.55 l 0.55,-0.15 c 0.367,-0.1 0.617,-0.217 0.75,-0.35 0.333,-0.233 0.617,-0.583 0.85,-1.05 l 0.35,-1.2 0.05,-0.4 v -0.2 z m -2.15,1.95 h -0.8 l -0.8,-0.25 -0.65,-0.3 -1.85,-2.4 -0.2,-0.4 c 0,-0.133 0.183,-0.25 0.55,-0.35 l 0.7,-0.1 1.2,0.3 1.05,0.6 c 0.767,0.8 1.15,1.45 1.15,1.95 l -0.1,0.5 -0.25,0.45 z"
   id="path25"
   style="fill:#002d64;fill-rule:evenodd" />
	</g>
</symbol>
<symbol
   id="Symbol_52"
   viewBox="-2.55 -26.45 15.75 9.45"
   transform="translate(9.2145094e-4,0.03975192)">
	<g
   id="Layer_1_6_">
		<path
   clip-rule="evenodd"
   d="m 9.4,-18.7 1,1.55 0.45,0.15 c 0.167,0 0.316,-0.067 0.45,-0.2 l 0.15,-0.45 -0.05,-0.1 -0.1,-0.2 -0.55,-1.3 -0.65,-1.05 -0.1,-0.1 0.05,-0.15 c 0.5,0.367 0.967,0.55 1.4,0.55 h 0.2 0.15 c 0.233,-0.3 0.35,-0.583 0.35,-0.85 l -0.05,-0.2 -0.3,-0.1 -0.55,-0.05 -0.95,-0.9 c -0.267,-0.367 -0.433,-0.75 -0.5,-1.15 l -0.05,-0.1 v -0.05 l 0.3,-0.25 0.45,-0.05 1.35,0.2 c 0.533,0.1 0.95,0.25 1.25,0.45 l 0.1,-0.1 -0.1,-0.1 -0.05,-0.15 -0.75,-0.55 -0.15,-0.1 -0.15,-0.1 -1.55,-0.25 -0.6,0.05 -0.6,0.4 -0.25,0.4 -0.2,0.4 v 0.2 0.15 l -0.05,0.15 -0.3,-0.4 -0.15,-0.1 -0.1,-0.1 -0.65,-0.9 L 7.4,-24.4 7.25,-24.65 6.9,-24.8 6.65,-24.9 c -0.367,0 -0.55,0.117 -0.55,0.35 l 0.1,0.25 0.85,1.5 0.7,1.2 0.65,1.25 1,1.65 z"
   id="path29"
   style="fill:#002d64;fill-rule:evenodd" />
		<g
   id="g31">
			<path
   clip-rule="evenodd"
   d="m 4.4,-20 h 0.05 l 0.15,0.1 0.1,-0.05 0.1,-0.1 0.35,-0.15 0.25,-0.45 0.1,-0.45 v -0.45 l 0.05,-0.05 v -0.5 H 5.6 v -0.4 l 0.05,-0.1 v -0.55 l 0.1,-0.5 v -0.95 l -0.1,-0.2 -0.15,-0.15 -0.2,0.05 -0.35,0.35 -0.1,0.2 v 0.05 l -0.05,0.05 -0.1,0.65 v 0.3 l -0.1,0.5 v 0.15 H 4.5 L 4.35,-22.85 4.3,-22.9 V -23 l -0.1,-0.15 -0.1,-0.1 V -23.3 L 3.8,-23.7 H 3.75 L 3.45,-24.15 3.4,-24.2 3.25,-24.3 v -0.05 L 3.05,-24.4 2.7,-24.8 2.35,-25.1 2.3,-25.15 V -25.2 H 2.2 v -0.05 L 2,-25.35 1.8,-25.5 1.7,-25.6 1.3,-25.7 v -0.05 l -0.2,-0.1 H 1 L 0.9,-25.9 0.85,-25.95 0.8,-26.05 H 0.6 l -0.45,-0.2 v -0.05 h -0.5 v -0.05 H -0.7 l -0.2,-0.1 h -0.25 v 0.05 h -0.2 l -0.4,0.15 -0.2,0.15 h -0.1 l -0.05,0.05 h -0.25 l -0.1,0.05 -0.1,0.2 0.1,0.1 0.25,0.05 h 0.15 l 0.2,0.15 h 0.2 l 0.05,0.05 h 0.1 l 0.5,0.2 0.1,0.05 0.15,0.1 0.45,0.2 h 0.05 l 0.1,0.1 0.2,0.1 0.05,0.05 0.35,0.25 H 0.5 l 0.5,0.4 0.05,0.05 0.55,0.45 h 0.05 l 0.05,0.05 0.05,0.1 H 1.8 l 0.45,0.45 0.25,0.15 v 0.1 l 0.05,0.05 0.05,0.1 h 0.05 l 0.05,0.05 0.45,0.55 0.15,0.15 v 0.1 l 0.35,0.45 0.1,0.3 c 0.033,0.066 0.083,0.1 0.15,0.1 v 0.1 l 0.05,0.1 0.15,0.1 0.25,0.05 v 0.4 L 4.4,-20 z"
   id="path33"
   style="fill:#002d64;fill-rule:evenodd" />
		</g>
	</g>
</symbol>
<symbol
   id="Symbol_53"
   viewBox="53.2 -826.05 32.3 14.95"
   transform="translate(9.2145094e-4,0.03975192)">
	<g
   id="Layer_1_7_">
		<path
   clip-rule="evenodd"
   d="m 82.65,-815.3 c 0.434,0 0.85,-0.233 1.25,-0.7 l 0.75,-1.4 0.2,-1.3 -0.2,-1.65 -1,-1.6 -0.25,-0.2 -0.3,-0.15 h -0.5 l -0.3,-0.05 -0.3,0.15 0.35,0.55 0.7,1.6 0.4,2.1 -0.05,0.85 -0.65,1.3 -0.2,0.15 -0.15,0.2 c 0,0.1 0.083,0.15 0.25,0.15 z m -0.7,-2.85 0.35,-0.4 V -819 c 0,-0.566 -0.2,-1.2 -0.6,-1.9 -0.467,-0.833 -1,-1.25 -1.6,-1.25 l -0.6,0.15 v 0.15 l 0.1,0.25 0.25,0.35 0.9,1.65 0.45,1.65 0.25,0.05 0.3,-0.05 0.2,-0.2 z"
   id="path37"
   style="fill:#002d64;fill-rule:evenodd" />
		<g
   id="g39">
			<path
   clip-rule="evenodd"
   d="m 85.05,-811.95 -0.3,-0.15 -2,-0.55 -0.9,-0.5 -0.3,-0.1 -0.2,-0.2 -0.2,-0.15 -0.1,-0.05 -0.1,-0.15 H 80.8 l -0.05,-0.05 -0.05,-0.1 -0.45,-0.35 -0.45,-0.5 -0.2,-0.1 -0.2,-0.25 h -0.05 l -0.1,-0.05 -0.3,-0.6 -0.35,-0.35 -0.25,-0.35 -0.05,-0.05 -0.1,-0.2 -0.25,-0.35 -0.1,-0.2 -0.2,-0.2 -0.1,-0.3 -0.2,-0.25 -0.15,-0.45 -0.1,-0.05 v -0.15 l -0.2,-0.25 -0.35,-1.05 -0.1,-0.15 -0.15,-0.45 0.2,-0.1 0.15,0.15 h 0.1 l 0.75,0.65 0.05,0.05 0.25,0.2 0.2,0.25 0.6,0.6 0.35,0.1 0.55,-0.2 0.15,-0.15 0.25,-0.15 0.05,-0.3 v -0.05 l -0.05,-0.05 -0.1,-0.3 v -0.2 l -0.05,-0.15 -0.1,-0.15 c -0.066,-0.3 -0.316,-0.534 -0.75,-0.7 l -0.05,-0.1 c -0.1,0 -0.217,-0.05 -0.35,-0.15 l -0.25,-0.25 -0.4,-0.2 -0.05,-0.1 -0.15,-0.05 -0.2,-0.1 -0.15,-0.1 -0.8,-0.25 -0.2,0.05 -0.25,0.25 -0.1,0.05 -0.15,0.1 -0.3,0.45 -0.1,0.05 -0.1,0.1 v 0.1 l -0.05,0.1 -0.05,0.15 -0.1,0.1 -0.2,1.25 h 0.05 l 0.2,0.5 v 0.1 l 0.1,0.1 0.05,0.3 0.1,0.2 0.1,0.1 0.1,0.35 0.15,0.15 0.25,0.6 0.05,0.05 v 0.1 l 0.15,0.1 0.1,0.25 h 0.05 l 0.2,0.35 v 0.05 l 0.2,0.1 0.2,0.3 0.1,0.2 0.1,0.1 0.1,0.15 0.05,0.1 0.2,0.15 0.4,0.6 0.4,0.35 0.3,0.35 0.15,0.1 0.05,0.15 0.15,0.05 0.05,0.1 0.25,0.15 0.75,0.6 h 0.1 l 0.15,0.1 c 0.033,0.067 0.083,0.1 0.15,0.1 l 0.05,0.05 0.3,0.15 v 0.05 l 1,0.45 v 0.05 l 0.85,0.3 1.05,0.2 v 0.05 l 0.3,-0.05 0.3,0.05 h 0.05 l 0.1,-0.05 v 0.05 h 0.1 v -0.05 l 0.25,0.05 h 0.1 l 0.45,-0.05 0.2,-0.2 -0.05,-0.15 h -0.1 l -0.3,-0.25 z"
   id="path41"
   style="fill:#002d64;fill-rule:evenodd" />
		</g>
		<g
   id="g43">
			<path
   clip-rule="evenodd"
   d="m 71.25,-815.3 h 0.45 l 0.65,-0.3 0.2,-0.25 0.25,-0.2 1.75,-2.45 v -0.55 l -0.55,-0.35 -0.6,-0.15 -1.2,-0.7 -0.5,-0.4 -0.8,-0.4 c -0.3,-0.167 -0.533,-0.317 -0.7,-0.45 l -1.7,-0.85 h -0.15 l -0.05,0.15 0.35,0.75 0.1,0.3 0.15,0.3 0.45,0.6 2.1,2.05 0.55,0.35 0.4,0.45 -0.75,1.2 -0.3,0.3 -0.2,0.4 0.1,0.2 z"
   id="path45"
   style="fill:#002d64;fill-rule:evenodd" />
		</g>
		<g
   id="g47">
			<path
   clip-rule="evenodd"
   d="m 61.95,-815.95 0.3,0.2 0.3,0.05 0.95,-0.3 0.95,-0.5 0.7,-0.7 0.75,-0.55 0.55,0.4 0.85,0.9 c 0.867,0.867 1.483,1.3 1.85,1.3 l 0.95,-0.3 0.2,-0.35 0.1,-0.4 -0.1,-0.25 -0.2,-0.3 -1.7,-1.5 -1.2,-1.45 0.55,-2.35 -0.1,-0.4 -0.3,-0.55 -0.25,-0.65 -1.25,-1.35 -1.3,-0.75 -0.95,-0.3 c -0.367,0 -0.7,0.133 -1,0.4 -0.267,0.233 -0.45,0.55 -0.55,0.95 l -0.05,0.15 -0.1,0.1 v 0.35 c 0,0.767 0.533,1.883 1.6,3.35 l 1.6,2.2 -0.4,0.7 -0.65,0.65 -1,0.65 h -0.2 l -0.2,0.05 -0.7,0.55 z m 4.2,-5.2 -0.05,0.2 h -0.15 l -2.35,-3.35 0.1,-0.1 0.75,0.35 0.65,0.55 0.6,0.75 0.45,1 v 0.6 z"
   id="path49"
   style="fill:#002d64;fill-rule:evenodd" />
		</g>
		<g
   id="g51">
			<path
   clip-rule="evenodd"
   d="m 62.1,-811.9 -0.1,-0.2 c -0.5,-0.167 -0.817,-0.316 -0.95,-0.45 l -0.45,-0.3 -0.65,-0.55 c -0.767,-0.7 -1.617,-1.833 -2.55,-3.4 l -0.6,-0.85 -2.35,-4.55 -0.15,-0.05 -0.15,-0.1 -0.35,0.15 -0.25,0.25 0.1,0.1 -0.35,0.6 -0.1,0.4 0.1,0.25 0.05,0.25 0.15,0.5 0.1,0.1 0.05,0.1 c 0.1,0.367 0.25,0.667 0.45,0.9 l 0.2,0.2 0.3,0.6 0.15,0.15 0.2,0.4 1.8,2.6 c 0.567,0.833 1.117,1.5 1.65,2 l 1.75,1.25 0.3,0.15 0.2,0.15 v -0.05 l 0.05,-0.05 0.2,0.1 0.85,0.15 h 0.4 c 0.633,0 0.967,-0.083 1,-0.25 l -0.1,-0.15 -0.1,-0.2 -0.85,-0.2 z"
   id="path53"
   style="fill:#002d64;fill-rule:evenodd" />
		</g>
	</g>
</symbol>
<symbol
   id="Symbol_54"
   viewBox="-40.75 -24.75 1.35 1.15"
   transform="translate(9.2145094e-4,0.03975192)">
	<g
   id="Layer_1_8_">
		<polygon
   clip-rule="evenodd"
   points="-40.2,-24.75 -40.55,-24.7 -40.75,-24.3 -40.65,-24 -40.45,-23.65 -40.05,-23.6 -39.85,-23.6 -39.7,-23.7 -39.4,-24.05 -39.7,-24.45 -39.75,-24.4 -39.95,-24.65 "
   id="polygon57"
   style="fill:#002d64;fill-rule:evenodd" />
	</g>
</symbol>
<symbol
   id="Symbol_55"
   viewBox="14.57 -806.497 150.584 58.85"
   transform="translate(9.2145094e-4,0.03975192)">
	<g
   id="Layer_1_9_">
		<path
   clip-rule="evenodd"
   d="m 79.7,-754.2 c 2.733,3.6 5.517,5.717 8.35,6.35 2.333,0.534 4.534,0.017 6.6,-1.55 1.767,-1.367 3.117,-3.217 4.05,-5.55 l 2.4,-5.55 c 0.867,-1.667 1.75,-2.833 2.65,-3.5 1,-0.733 2.117,-0.9 3.35,-0.5 1.333,0.434 2.883,1.566 4.65,3.4 6.3,6.5 10.867,10.367 13.7,11.6 4.566,2 4.7,-2.6 0.4,-13.8 -2.467,-6.367 -5,-11.7 -7.6,-16 -2.567,-4.3 -5,-7.267 -7.3,-8.9 -2.4,-1.667 -4.467,-1.783 -6.2,-0.35 -1.833,1.533 -3.183,4.733 -4.05,9.6 -0.8,4.333 -1.934,7.117 -3.4,8.35 -1.267,1.067 -2.816,1.017 -4.65,-0.15 -1.333,-0.8 -3,-2.35 -5,-4.65 l -2.35,-2.8 -2.15,-2.4 -5.95,-5.8 c -2.934,-2.6 -5.267,-4.217 -7,-4.85 -2.267,-0.867 -3.483,-0.033 -3.65,2.5 -0.2,3.066 1.133,8.533 4,16.4 2.9,7.933 5.95,13.983 9.15,18.15 z m 8.05,1.1 c -2.2,-0.333 -4.433,-2.066 -6.7,-5.2 -2.8,-3.8 -5.6,-9.55 -8.4,-17.25 5.333,11.133 10.383,17.667 15.15,19.6 2.434,1.034 4.733,0.267 6.9,-2.3 -0.5,1.3 -1.267,2.45 -2.3,3.45 -1.433,1.4 -2.983,1.967 -4.65,1.7 z"
   id="path61"
   style="fill:#002d64;fill-rule:evenodd" />
		<g
   id="g63">
			<path
   clip-rule="evenodd"
   d="m 150.1,-755.4 c -1.467,1.367 -3.033,1.933 -4.7,1.7 -2.167,-0.333 -4.4,-2.066 -6.7,-5.2 -2.767,-3.8 -5.567,-9.567 -8.4,-17.3 5.333,11.134 10.383,17.684 15.15,19.65 2.466,1 4.783,0.233 6.95,-2.3 -0.533,1.3 -1.3,2.45 -2.3,3.45 z m 2.5,4.2 c 2.133,-2 4.133,-4.65 6,-7.95 1.867,-3.3 3.367,-6.833 4.5,-10.6 1.2,-4 1.867,-7.816 2,-11.45 0.167,-2.7 -0.05,-4.966 -0.65,-6.8 -0.567,-1.667 -1.317,-2.684 -2.25,-3.05 -1.333,-0.534 -2.7,0.083 -4.1,1.85 -0.567,0.7 -1.167,1.65 -1.8,2.85 l -5.45,10.05 c -1.467,1.966 -2.917,2.85 -4.35,2.65 -0.867,-0.1 -1.867,-0.75 -3,-1.95 l -9.4,-11.15 c -2.633,-2.767 -5.483,-5.367 -8.55,-7.8 -2.8,-2.233 -5.733,-4.184 -8.8,-5.85 -2.7,-1.467 -5.317,-2.633 -7.85,-3.5 -2.267,-0.767 -4.2,-1.2 -5.8,-1.3 -1.567,-0.066 -2.517,0.184 -2.85,0.75 -0.4,0.567 -0.517,1.117 -0.35,1.65 0.133,0.5 0.55,1.083 1.25,1.75 l 12.3,9.5 c 3.633,3.4 7.233,7.983 10.8,13.75 2.433,3.966 4.683,8.2 6.75,12.7 5.3,11.9 10.317,17.667 15.05,17.3 2.1,-0.167 4.283,-1.3 6.55,-3.4 z"
   id="path65"
   style="fill:#002d64;fill-rule:evenodd" />
		</g>
		<g
   id="g67">
			<path
   clip-rule="evenodd"
   d="m 72.15,-758 c -0.267,-1.367 -0.783,-2.95 -1.55,-4.75 l -4,-7.4 -2.75,-3.35 c -2.3,-2.4 -4.217,-3.467 -5.75,-3.2 -1.467,0.267 -2.233,1.8 -2.3,4.6 -0.066,1.867 0.184,4.15 0.75,6.85 l 1.2,4.25 c 0.767,2.133 1.6,4 2.5,5.6 1.133,2.033 2.35,3.5 3.65,4.4 1.567,1.066 3.167,1.267 4.8,0.6 3.1,-1.233 4.25,-3.767 3.45,-7.6 z m -8.2,-2.4 c 1.966,3.7 3.483,5.316 4.55,4.85 -3.767,3.267 -6.867,-1.417 -9.3,-14.05 l 4.75,9.2 z"
   id="path69"
   style="fill:#002d64;fill-rule:evenodd" />
		</g>
		<g
   id="g71">
			<path
   clip-rule="evenodd"
   d="m 28.55,-780.4 c -0.8,-0.867 -0.95,-1.067 -0.45,-0.6 l 13.25,13.45 9.7,11.25 c 1.467,1.8 2.417,2.683 2.85,2.65 -1.333,0.733 -2.633,0.233 -3.9,-1.5 l -8.55,-10.8 -12.9,-14.45 z m 10.95,-3 c 1.167,4.033 2.6,8.533 4.3,13.5 -4.466,-5.3 -9.233,-10.55 -14.3,-15.75 3.6,1 6.933,1.75 10,2.25 z m -5.25,11.9 c 6.7,7.434 12.2,14.367 16.5,20.8 0.533,0.767 1.2,1.25 2,1.45 l 2.15,-0.25 c 0.667,-0.333 1.133,-0.85 1.4,-1.55 0.333,-0.767 0.333,-1.6 0,-2.5 l -5.25,-14.4 c -1.9,-5.366 -3.517,-10.233 -4.85,-14.6 l 7.2,-0.4 c 0.967,-0.167 1.667,-0.65 2.1,-1.45 0.4,-0.7 0.533,-1.45 0.4,-2.25 -0.167,-0.767 -0.566,-1.4 -1.2,-1.9 -0.7,-0.567 -1.534,-0.75 -2.5,-0.55 -2.034,0.4 -4.65,0.434 -7.85,0.1 l -3.4,-14.85 c -0.167,-0.966 -0.633,-1.683 -1.4,-2.15 -0.667,-0.434 -1.4,-0.583 -2.2,-0.45 -0.8,0.134 -1.45,0.517 -1.95,1.15 -0.566,0.7 -0.767,1.533 -0.6,2.5 0.567,3.466 1.5,7.7 2.8,12.7 -3.2,-0.667 -6.6,-1.566 -10.2,-2.7 -2.967,-0.9 -5.767,-1.85 -8.4,-2.85 l -2.35,-0.15 c -0.7,0.233 -1.233,0.65 -1.6,1.25 -0.4,0.6 -0.55,1.267 -0.45,2 0.1,0.767 0.483,1.466 1.15,2.1 6.767,6.433 12.933,12.75 18.5,18.95 z"
   id="path73"
   style="fill:#0079ca;fill-rule:evenodd" />
		</g>
	</g>
</symbol>
<g
   id="g2925"
   transform="translate(9.2145094e-4,0.03975192)"><use
     xlink:href="#Symbol_55"
     width="150.584"
     height="58.849998"
     x="14.57"
     y="-806.49701"
     transform="matrix(10.4136,0,0,-10.4136,-151.7367,-7785.3174)"
     overflow="visible"
     id="use99"
     style="overflow:visible" /></g>
</svg>